<?xml version="1.0" encoding="iso-8859-1"?>
<!-- Uploaded to: SVG Repo, www.svgrepo.com, Generator: SVG Repo Mixer Tools -->
<!DOCTYPE svg PUBLIC "-//W3C//DTD SVG 1.1//EN" "http://www.w3.org/Graphics/SVG/1.1/DTD/svg11.dtd">
<svg fill="#000000" version="1.1" id="Capa_1" xmlns="http://www.w3.org/2000/svg" xmlns:xlink="http://www.w3.org/1999/xlink" 
	 width="800px" height="800px" viewBox="0 0 270.042 270.042"
	 xml:space="preserve">
<g>
	<g>
		<g>
			<path d="M51.854,202.117C52.555,202.316,51.055,201.316,51.854,202.117L51.854,202.117z"/>
			<path d="M51.854,202.117L51.854,202.117L51.854,202.117L51.854,202.117L51.854,202.117z"/>
			<path d="M245.555,127.117c4.2-1,8-3.1,10.7-6.6c6.2-8.2,6.6-21.1,1.1-29.7c-3.2-5-8.2-7.2-13.399-7.3
				c4.699-6.3,5.199-15,1.3-22.8c-4-8.1-17-15.3-26.5-12.6c1.399-6.5-0.4-13.6-5.9-19.2c-9.6-9.7-31.2-10.1-37,4.1
				c-0.899,2.2,0.8,4.5,2.9,5.3c-2.4,4.9-3.601,10.4-2.601,15.8c2.801,15.9,19.601,14,30.801,8.5c0.6-0.3,1.1-0.7,1.6-1
				c-2.3,4.2-3.6,9-3.3,13.8c0.7,11.7,10.899,17.2,21.2,16.8c-0.301,0.5-0.5,1.1-0.601,1.6c-6.5,6.6-9.3,16.7-3.399,25.2
				c1.3,1.9,3.1,3.5,4.899,4.8c-2.7,0.8-5.2,2.3-7.399,4.7c-1.7,1.9-1.601,4.7-0.2,6.4c-6.4,5.7-9.601,15.101-7.9,23.7
				c-2.2-0.301-4.399-0.301-6.7,0c-10,1.4-16.5,10.5-15.8,20.199c0.2,2.101,3.5,2.9,3.9,0.5c2.2-14.399,19.8-16.399,26.3-3.899
				c3.1,5.899,0.3,12.7-4.2,16.8c-5.399,5-10.2,2.2-15.8-0.199c0.2-1.601,0.1-3-0.7-4.301c-1.7-2.9-4.1-3-6.8-1.699
				c0-0.801-0.2-1.5-0.5-2.201c-2.1-4.399-6.8-7.899-9.9-11.6c-4.5-5.3-8.699-10.8-12.8-16.5c-0.1-0.1-0.2-0.199-0.3-0.3
				c-0.3-2.601-2.1-5.101-5.5-5.101c-24-0.1-48.8-1.6-72.3,4.301c-2.8,0.699-3.1,4.3-1.4,5.9c-3.5,2.5-6.3,7.799-8.2,10.5
				c-1.5,2.199-2.9,4.399-4.4,6.6c-1-3.9-3.6-7.9-6.3-10.4c-2.9-2.699-6.5-3.8-10.3-3.199c-1.8-6.701-6.5-12.5-13-14.601
				c0-0.101,0.1-0.101,0.2-0.2c4.8-7.5,7.5-19.6,0.4-26.7c-2.7-2.7-6.2-3.9-9.8-4.3c13.4-1.3,24.7-12.5,27-25.7
				c1.2-6.5-0.7-12.3-4.4-16.7c0.9-0.2,1.8-0.4,2.6-0.7c0.4,0.9,0.9,1.7,1.8,2.2c5.9,3.4,13.4-0.8,18.1-4.7c4.8-4,6.9-10.4,7.5-16.4
				c0.2-2.3,0-4.6-0.4-6.8c5,0.9,10.7-0.5,15.4-3.5c2.7-1.7,4.9-3.9,6.7-6.2c6.2,3.9,14.8,4.8,21.2,1.6c1.2-0.6,2.2-1.3,3.2-2
				c4.801,6.9,14.2,9.3,22.5,6.6c12.7-4.2,22.301-18.5,13.7-30.9c-5.899-8.5-20-11.4-28.2-5.3c-4-9.8-16.6-12.6-25.7-6.5
				c-0.5,0.4-0.9,0.8-1.3,1.2c-4.3,2-7.8,5.7-10.2,10.1c-5.7-2.7-13.3-1.4-18.9,2.3c-0.1,0-0.1,0-0.2,0c-6.3,2.9-10,9.5-10.1,16.4
				c-2.2-1.1-4.6-1.8-7.2-2.1c-14.6-1.2-23.7,13.5-25.1,26.1c-0.4,3.5,0.3,7.4,1.8,10.8c-2-0.4-4.1-0.7-6.2-0.5
				c-21.9,1.2-25.2,36.3-9.4,45.5c0.1,2.2,1.4,4.4,3.6,5.1c-3.3,0-6.7,0.5-9.6,1.5c-7.3,2.3-14.3,7.5-16.7,15
				c-3,9.5,5.4,18.5,13.3,22.3c3.1,1.5,6.7-2.399,3.9-5c-2.9-2.7-6-5.2-7.9-8.8c-1.2-2.301-1.1-4.1-0.5-6.1
				c0.4-1.301,1.8-3,3.9-4.701c1.5-1.2,4.3-2.5,6.6-3.2c3.1-1,4.2-1.2,7.3-1c1.5,0.1,0.9-0.1,2.8,0.5c0.3,0.1,0.4,0.1,0.5,0.1
				c0,0,0.2,0.1,0.5,0.3c0.2,0.1,0.4,0.3,0.6,0.4c0.1,0,0,0,0.1,0c0,0,0,0,0.1,0.1c0.1,0.1,0.5,0.5,0.6,0.7c0.3,0.5,0.8,1.5,0.4,0.5
				c0.7,1.7,0.5,1.1,0.5,3.1c0,1.201-0.4,2.6-0.9,4.4c-0.8,2.5-2,4.801-3,7.2c-0.6,1.5-0.4,2.899,0.3,3.899
				c-5.2,1.4-9.9,5.301-13.1,9.301c-4.5,5.699-8,13.4-5.7,20.699c1.1,3.601,3.8,6.601,7.3,8.101c4.5,1.899,8.1,0.601,12.6-0.101
				c1.1-0.199,1.1-2,0-2.199c-4.7-0.801-10.8-4.5-11.7-8.6c0.1,0.6,0.1-2.301,0-1.801c0.2-1.199,0.5-2.3,0.8-3.4
				c0.6-1.799,2.2-4.399,3.4-5.899c1.6-2,3.4-3.5,5.2-4.7c1-0.6,2.1-1.199,2.5-1.4c1.5-0.6,2-0.6,2.9-0.699c1.8-0.1,2.9,0.4,4.5,1.9
				c2.2,2.199,3,5.199,4.2,8c-3.7,3.699-6.4,8.899-8.2,13.399c-3,7.3-4.6,16.2-1.2,23.5c4.3,9.3,15.1,6.101,21.7,1.7
				c1.9-1.301,3.6-2.7,5.2-4.5c1.3-1.6,0.1-4.4-2.1-3.7c-3.9,1.2-8.6,3.3-12,3.601c-1.7,0.1-1.4,0.199-3-0.4l0,0c0,0,0,0-0.1-0.1
				c-0.1,0-0.1,0-0.2-0.101c0.1,0,0.1,0,0.1,0c-0.1-0.101-0.2-0.2-0.3-0.2c0,0,0-0.1-0.2-0.3c-0.1-0.2-0.1-0.2-0.2-0.3
				c0-0.1,0-0.1-0.1-0.301c-0.1-0.399-0.2-0.799-0.3-1.199c0-0.2-0.1-1.1-0.1-1.301c0-0.799,0-1.6,0.1-2.5
				c0-0.199,0.1-1.299,0.1-1.5c0.1-0.799,0.3-1.6,0.5-2.399c0.4-1.7,0.9-3.399,1.5-5c0.8-2.2,2.3-5.101,4.2-7.899
				c1.1-1.601,2.7-3.301,4.5-4.301c0.2-0.1,0.4-0.199,0.6-0.199c0.1,0,0.2,0,0.4,0.1c-0.2,0.1,1.7,1.1,0.6,0.199
				c1.6,1.4,1.4,1.4,2.6,3.301c1.4,2.199,2.2,4.6,3.9,6.6c0.6,0.7,1.4,1,2.3,1.2c-0.7,1.3-1.5,2.5-2.2,3.8c-0.8,1.5-0.6,2.9,0.1,3.9
				c-1.4,1.1-1.4,3.699,0.7,4.1c11.9,2,24.1,2.301,36.3,2.4c4.2,7.699,8.8,15.1,12.6,23c1.3,2.8,2.5,6.199,3.8,9.5
				c-3.7-2.4-7.4-4.7-10.7-7.1c-12.2-8.801-24.2-18.9-37.7-25.701c-3.5-1.699-7,2.5-4.2,5.4c10.5,10.801,23.4,19.6,35.3,28.801
				c8.8,6.799,18.9,17,29.8,20.199c3.2,0.9,5.3-1.199,5.6-3.8h0.101c14.6-6.8,26.3-19.899,37-31.5c3-3.2,11.6-10.8,16.899-18.2
				c5.601,6.5,16,6.301,23.601,2.2c9.899-5.399,14.5-17.601,11.7-28.3c5.199,0.4,10.8-0.801,15.699-3.4
				c11.9-6.3,13.9-22.699,8.601-34C253.154,133.417,249.654,129.817,245.555,127.117z M199.854,53.617c-5.899,3-13.2,4.1-13.899-4
				c-0.5-5.5,1.5-11.3,4.699-16.1c1-0.4,2.101-0.7,3.2-0.8c3.601-0.4,7.4,0.9,10.3,3.2
				C212.154,42.317,207.455,49.717,199.854,53.617z M163.654,21.617c4.5,6.4-3.699,12.5-9.199,14.2c-4.5,1.4-8.9-1-10.5-5.3
				c1.3-2.9,2.1-6,2.399-9.2C152.255,19.717,158.854,14.617,163.654,21.617z M119.755,12.417c1,0.5,2.2,0.7,3.6,0.2
				c5.1-1.5,9.8-3.6,11.6,2.8c0.6,2.1,0.5,4.4,0,6.6c-0.3,0.8-0.5,1.7-0.8,2.6c-0.9,2.3-2.3,4.5-4.1,6.1c-3.9,3.4-10.6,2-13.7-1.9
				c0-2.3-0.4-4.5-1.4-6.8C115.455,18.617,117.255,15.117,119.755,12.417z M87.455,30.717c4.6-1.8,11.7-10.5,17-5.5
				c0.1,0.1,0.1,0.2,0.2,0.3c0,0.2-0.1,0.4-0.1,0.6c0,1.9,0.3,3.7,0.8,5.3c-1.3,2.6-4.1,5-6,6.3c-4,2.8-9.4,3.7-11.7-1.7
				c-0.7-1.7-0.9-3.5-0.8-5.2C87.155,30.717,87.255,30.817,87.455,30.717z M72.854,41.917c6,1.5,8,9.7,7.2,15
				c-0.5,3.3-2.1,5.8-4.5,8c-3.1,2.8-7.5,2.4-10.8,4.8C48.655,69.617,56.354,37.817,72.854,41.917z M32.155,94.217
				c-0.2-5.8,2.4-13.6,8.4-15.6c7.9-2.6,15,4.9,13.6,12.4c-1.6,8.5-8.5,14-16.4,16.1C34.255,103.917,32.354,99.517,32.155,94.217z
				 M108.155,188.917c-10.2,0.101-20.3,0.601-30.1,2.5c3.5-5,7-9.899,10.8-14.601c3.4-4.199,9.9-8.6,9-14.5
				c-0.1-0.399-0.2-0.799-0.5-1.1c5.9-0.199,11.8-0.199,17.7-0.199c-1.2,2.899-1.9,6.199-2.5,8.399
				C110.755,175.417,108.555,182.316,108.155,188.917z M119.455,174.717c1.6-4.3,4.3-8.9,5.3-13.6c4.7,0.1,9.3,0.1,14,0.199
				c0.8,4,3.5,8.301,5,11.601c2.5,5.399,5.3,10.5,8.5,15.399c-6.2,0.301-12.4,0.601-18.1,0.601c-6.5,0-13.2,0-19.9-0.101
				C115.755,184.117,117.755,179.316,119.455,174.717z M134.354,231.316c-2.1-4.699-4.9-9.199-6.9-12.899
				c-3.1-5.8-6.9-12.7-11.7-18.2c3.9,0,7.8,0.1,11.6,0.2c5.7,0.2,11.8,0.601,18.101,1.101c-1.2,3.899-2.101,7.899-3.601,11.699
				C139.455,219.316,136.654,225.217,134.354,231.316z M175.255,204.117c-11.2,13.3-23.5,27.8-38.4,37.1v-0.1
				c0.3-0.2,0.601-0.5,0.8-1c5.301-10.801,15.9-24.801,18-37.9c7.101,0.4,14.2,0.7,21,0.1
				C176.055,203.117,175.555,203.816,175.255,204.117z M158.955,188.117c-2.5-6.1-4.7-12.4-6.9-18.6c-0.8-2.301-1.5-5.301-2.5-8
				c4.2,0.1,8.4,0.199,12.6,0.199c3.101,5.9,6.801,11.6,10.801,16.9c3,3.8,6,8.4,10.199,10.699
				C175.455,188.018,167.154,187.917,158.955,188.117z M247.955,96.317c2.899,4.2,2.899,10.9,0.899,15.5c-3,6.6-9.1,6.1-14.899,3.2
				c-7.2-3.5-5.5-10.7-1.301-16.5C237.354,96.517,244.154,90.817,247.955,96.317z M215.154,72.917c-0.3-5.3,1.7-10.2,5-14.1
				c1.9-0.3,3.801-0.6,5.801-0.3c3.6,0.6,6.8,2.7,8.899,5.5c4.4,6,3.101,13.6-4.1,16.4
				C223.755,83.217,215.654,81.017,215.154,72.917z M242.555,160.617c-5.7,5.6-17.8,4.8-20.3-3.301c-2.5-8,1.2-17.1,7.5-22.299
				c2.2-0.601,4.399-1,6.8-0.401c3.5,0.8,6,3.5,7.8,6.401C247.955,147.018,247.654,155.617,242.555,160.617z"/>
		</g>
		<path d="M187.354,121.317c0.2-0.2,0.3-0.4,0.5-0.6c2.7-3.6-2.6-8.9-6.2-6.2c-1.199,0.9-2.3,1.9-3.399,2.8
			c0.1-3.4,0.3-6.8,0.6-10.2c0.3-2.7-4.2-3.3-4.7-0.6c-0.899,4.4-1.399,8.7-1.699,13c-2.4-0.1-4.9-0.3-7.4-0.3c-1-0.4-2-0.8-3-1.3
			c-4.1-1.9-9.1,2.5-7.4,6.1c-0.1,2.1,1,4.3,3.5,4.9c0.9,0.2,1.7,0.5,2.601,0.7c0.2,0.2,0.399,0.3,0.5,0.5c-1.601,1.9-3,4-4.101,6.5
			c-1.699,3.8,2.301,10,6.601,6.6c1.899-1.4,3.7-2.9,5.6-4.4c1.101,1.4,2.101,2.801,3.2,4.301c2.7,4,9.4,1.6,8-3.4
			c-0.4-1.4-0.6-2.8-0.9-4.199c0.9,0.299,1.9,0.6,2.801,0.799c4.3,1.201,6.899-3.1,6-6.399
			C191.354,128.017,191.354,122.317,187.354,121.317z"/>
		<path d="M223.854,230.117c-4.1,0.6-8.5,1.5-12.899,2.9c0.6-1,1.199-2,1.8-3c2.1-3.601-1.5-9.301-5.8-7.601
			c-2.2,0.899-4.301,1.601-6.4,2.399c-0.4-0.799-0.8-1.699-1.2-2.5c-1.3-2.799-5.899-0.799-4.899,2.101c0.199,0.7,0.399,1.3,0.6,2
			c-3.6,0.899-7.2,1.399-11.2,1.5c-5.1,0.101-7.1,7-2.6,9.601c1.8,1.1,3.6,2.199,5.5,3.399c-2.601,2.101-2.101,6.101,1.1,7.7
			c-1.399,2.3-2.6,4.8-3.2,7.6c-0.899,4.4,5.101,9.2,8.4,4.9c1.9-2.5,3.7-5,5.4-7.5c3.399,1.699,6.8,3.4,10.399,4.699
			c2.3,0.801,4.5-0.699,5.4-2.699c0.7,0.199,1.399,0.6,2.1,0.8c5.4,1.601,7.5-5.5,3.601-8.399c-2.2-1.701-4.601-3.201-7-4.601
			c4.5-1,9-2.101,13.399-3.5C232.755,237.717,230.055,229.316,223.854,230.117z"/>
		<path d="M80.555,244.816c-1.9-0.1-3.7-0.199-5.6-0.299c1.9-1.9,3.7-3.9,5.5-6c2.9-3.5,1-8.4-3.6-8.701c-2-0.199-4.3-0.899-5.9-2.1
			c-2.9-2.3-7-1.6-8.2,2.2c-0.9,2.601-1.6,5.2-2.3,7.8c-0.4,0-0.7,0-1.1,0c-0.8-0.6-1.6-1.199-2.4-1.699c-3.5-2.601-7.8,1.1-8,4.699
			c-3.1,0.7-6.2,1.4-9.1,2.6c-4.9,2-4.6,9.601,1.3,9.701c2.5,0,5.1,0.199,7.6,0.399c-1.9,1.2-3.8,2.601-5.6,4.2
			c-4.2,3.9,1.3,11.199,6.2,8c2.4-1.6,4.7-3.2,6.9-4.9c0.1,1.4,0.3,2.801,0.3,4.301c0.2,6.699,10.3,6.699,10.4,0
			c0-2,0.1-3.9,0.3-5.9c0.4,0.1,0.8,0.199,1.3,0.4c1.9,1.5,3.7,2.899,5.7,4.299c1.4,0.9,2.8,1,4,0.601c3.9,0.5,7.3-5.3,4-8.5
			c-0.3-0.3-0.7-0.601-1.1-0.899C87.155,254.117,86.955,245.217,80.555,244.816z"/>
	</g>
</g>
</svg>